<svg width="34" height="34" viewBox="0 0 34 34" fill="none" xmlns="http://www.w3.org/2000/svg">
<path d="M19.8695 24.4942L18.091 26.3358V18.4167C18.091 18.0409 17.9458 17.6806 17.6872 17.4149C17.4287 17.1493 17.078 17 16.7124 17C16.3467 17 15.9961 17.1493 15.7375 17.4149C15.479 17.6806 15.3337 18.0409 15.3337 18.4167V26.3358L13.5552 24.4942C13.4267 24.3621 13.2741 24.2573 13.1061 24.1858C12.9382 24.1143 12.7582 24.0775 12.5764 24.0775C12.3946 24.0775 12.2146 24.1143 12.0466 24.1858C11.8787 24.2573 11.7261 24.3621 11.5975 24.4942C11.469 24.6263 11.367 24.7831 11.2974 24.9557C11.2279 25.1282 11.1921 25.3132 11.1921 25.5C11.1921 25.6868 11.2279 25.8718 11.2974 26.0444C11.367 26.2169 11.469 26.3737 11.5975 26.5058L15.7335 30.7558C15.8646 30.8848 16.0192 30.9859 16.1885 31.0533C16.3535 31.1283 16.5319 31.167 16.7124 31.167C16.8928 31.167 17.0712 31.1283 17.2363 31.0533C17.4055 30.9859 17.5601 30.8848 17.6912 30.7558L21.8272 26.5058C22.0868 26.2391 22.2327 25.8773 22.2327 25.5C22.2327 25.1227 22.0868 24.7609 21.8272 24.4942C21.5676 24.2274 21.2155 24.0775 20.8484 24.0775C20.4812 24.0775 20.1291 24.2274 19.8695 24.4942ZM25.5634 8.81167C24.721 6.82267 23.2672 5.17236 21.4247 4.11361C19.5823 3.05487 17.4528 2.6461 15.3626 2.94994C13.2724 3.25378 11.3368 4.25348 9.85247 5.79583C8.3681 7.33819 7.41682 9.33812 7.14441 11.4892C5.82997 11.8126 4.67691 12.6208 3.90418 13.7604C3.13146 14.8999 2.7929 16.2913 2.9528 17.6704C3.1127 19.0495 3.75992 20.3202 4.77154 21.2413C5.78317 22.1624 7.08876 22.6696 8.44036 22.6667C8.80601 22.6667 9.15668 22.5174 9.41523 22.2517C9.67378 21.9861 9.81903 21.6257 9.81903 21.25C9.81903 20.8743 9.67378 20.5139 9.41523 20.2483C9.15668 19.9826 8.80601 19.8333 8.44036 19.8333C7.70907 19.8333 7.00773 19.5348 6.49063 19.0035C5.97353 18.4721 5.68303 17.7514 5.68303 17C5.68303 16.2486 5.97353 15.5279 6.49063 14.9965C7.00773 14.4652 7.70907 14.1667 8.44036 14.1667C8.80601 14.1667 9.15668 14.0174 9.41523 13.7517C9.67378 13.4861 9.81903 13.1257 9.81903 12.75C9.82255 11.0745 10.404 9.45448 11.46 8.17783C12.5161 6.90117 13.9783 6.05051 15.587 5.77699C17.1957 5.50346 18.8467 5.82478 20.2467 6.68385C21.6466 7.54292 22.7049 8.88411 23.2335 10.4692C23.3123 10.7126 23.4539 10.9295 23.6433 11.0967C23.8327 11.2638 24.0627 11.375 24.3088 11.4183C25.2271 11.5967 26.0596 12.0893 26.6705 12.8159C27.2815 13.5426 27.6349 14.4604 27.6733 15.4199C27.7117 16.3794 27.4327 17.3239 26.8818 18.0997C26.331 18.8754 25.5407 19.4365 24.6397 19.6917C24.4641 19.7382 24.2991 19.8198 24.1542 19.9318C24.0092 20.0438 23.8872 20.1841 23.795 20.3446C23.7029 20.5051 23.6424 20.6827 23.617 20.8672C23.5916 21.0517 23.6018 21.2395 23.6471 21.42C23.6923 21.6005 23.7717 21.77 23.8808 21.9189C23.9898 22.0678 24.1263 22.1932 24.2825 22.288C24.4387 22.3827 24.6115 22.4448 24.791 22.4709C24.9706 22.497 25.1534 22.4865 25.329 22.44C26.7799 22.046 28.0661 21.1763 28.9922 19.9629C29.9183 18.7495 30.4337 17.2587 30.4602 15.7169C30.4867 14.1751 30.0229 12.6665 29.1391 11.4202C28.2553 10.1739 26.9999 9.25806 25.5634 8.81167Z" fill="#4E4B66"/>
</svg>
