<svg width="34" height="32" viewBox="0 0 34 32" fill="none" xmlns="http://www.w3.org/2000/svg">
<path d="M30.3888 15.4667C27.6039 9.21334 22.3649 5.33334 16.7124 5.33334C11.0598 5.33334 5.8209 9.21334 3.036 15.4667C2.96008 15.6349 2.9209 15.8165 2.9209 16C2.9209 16.1835 2.96008 16.3651 3.036 16.5333C5.8209 22.7867 11.0598 26.6667 16.7124 26.6667C22.3649 26.6667 27.6039 22.7867 30.3888 16.5333C30.4647 16.3651 30.5039 16.1835 30.5039 16C30.5039 15.8165 30.4647 15.6349 30.3888 15.4667ZM16.7124 24C12.342 24 8.206 20.9467 5.8209 16C8.206 11.0533 12.342 8 16.7124 8C21.0828 8 25.2188 11.0533 27.6038 16C25.2188 20.9467 21.0828 24 16.7124 24ZM16.7124 10.6667C15.6217 10.6667 14.5555 10.9795 13.6486 11.5655C12.7417 12.1515 12.0349 12.9845 11.6175 13.959C11.2001 14.9336 11.0909 16.0059 11.3037 17.0405C11.5165 18.075 12.0417 19.0254 12.8129 19.7712C13.5842 20.5171 14.5668 21.0251 15.6365 21.2309C16.7063 21.4366 17.8151 21.331 18.8228 20.9274C19.8304 20.5237 20.6917 19.8401 21.2977 18.963C21.9036 18.086 22.227 17.0548 22.227 16C22.227 14.5855 21.646 13.229 20.6118 12.2288C19.5776 11.2286 18.175 10.6667 16.7124 10.6667ZM16.7124 18.6667C16.167 18.6667 15.6339 18.5103 15.1805 18.2173C14.727 17.9242 14.3736 17.5078 14.1649 17.0205C13.9562 16.5332 13.9016 15.997 14.008 15.4798C14.1144 14.9625 14.377 14.4873 14.7626 14.1144C15.1483 13.7414 15.6396 13.4875 16.1744 13.3846C16.7093 13.2817 17.2637 13.3345 17.7676 13.5363C18.2714 13.7382 18.702 14.08 19.005 14.5185C19.308 14.957 19.4697 15.4726 19.4697 16C19.4697 16.7072 19.1792 17.3855 18.6621 17.8856C18.145 18.3857 17.4437 18.6667 16.7124 18.6667Z" fill="#4E4B66"/>
</svg>
