<svg width="157" height="120" viewBox="0 0 157 120" fill="none" xmlns="http://www.w3.org/2000/svg">
<g clip-path="url(#clip0)">
<path d="M157 37.0937V116.984C157 116.984 64.8408 88.5813 24.0273 120V108.182C66.9736 82.6033 151.734 108.719 151.734 108.719V34.4353C152.616 34.8485 153.485 35.2755 154.367 35.7301C155.249 36.1846 156.118 36.6254 157 37.0937Z" fill="#494A77"/>
<path d="M149.101 24.697V104.587C149.101 104.587 56.9413 76.1846 16.1279 107.603V95.7851C59.0742 70.2066 143.834 96.3223 143.834 96.3223V22.0386C144.717 22.4518 145.585 22.8788 146.468 23.3333C147.35 23.7879 148.219 24.2286 149.101 24.697Z" fill="#494A77"/>
<path d="M141.201 13.6777V93.5675C141.201 93.5675 49.0419 65.1653 8.22852 96.584V84.7658C51.1748 59.1873 135.935 85.303 135.935 85.303V11.0193C136.817 11.4325 137.686 11.8595 138.568 12.3141C139.45 12.7686 140.319 13.2094 141.201 13.6777Z" fill="#494A77"/>
<path d="M132.973 2.65839V82.5482C132.973 82.5482 40.8134 54.146 0 85.5648V73.7465C42.9462 48.168 127.706 74.2838 127.706 74.2838V0C128.589 0.413223 129.458 0.840224 130.34 1.29477C131.222 1.74931 132.091 2.19007 132.973 2.65839Z" fill="#494A77"/>
</g>
<defs>
<clipPath id="clip0">
<rect width="157" height="120" fill="white"/>
</clipPath>
</defs>
</svg>
