<svg width="34" height="32" viewBox="0 0 34 32" fill="none" xmlns="http://www.w3.org/2000/svg">
<path d="M4.83398 8H7.5612H29.3789" stroke="#4E4B66" stroke-width="2" stroke-linecap="round" stroke-linejoin="round"/>
<path d="M11.6519 8V5.33333C11.6519 4.62609 11.9392 3.94781 12.4506 3.44771C12.9621 2.94762 13.6558 2.66666 14.3791 2.66666H19.8335C20.5568 2.66666 21.2505 2.94762 21.7619 3.44771C22.2734 3.94781 22.5607 4.62609 22.5607 5.33333V8M26.6515 8V26.6667C26.6515 27.3739 26.3642 28.0522 25.8527 28.5523C25.3413 29.0524 24.6476 29.3333 23.9243 29.3333H10.2882C9.56495 29.3333 8.87127 29.0524 8.35982 28.5523C7.84837 28.0522 7.56104 27.3739 7.56104 26.6667V8H26.6515Z" stroke="#4E4B66" stroke-width="2" stroke-linecap="round" stroke-linejoin="round"/>
<path d="M19.8335 14.6667V22.6667" stroke="#4E4B66" stroke-width="2" stroke-linecap="round" stroke-linejoin="round"/>
<path d="M14.3794 14.6667V22.6667" stroke="#4E4B66" stroke-width="2" stroke-linecap="round" stroke-linejoin="round"/>
</svg>
