<svg width="35" height="34" viewBox="0 0 35 34" fill="none" xmlns="http://www.w3.org/2000/svg">
<g clip-path="url(#clip0)">
<path d="M33.0648 5.66667V14.1667H24.6353" stroke="#4E4B66" stroke-width="2" stroke-linecap="round" stroke-linejoin="round"/>
<path d="M29.5382 21.25C28.625 23.8566 26.8963 26.0932 24.6128 27.6229C22.3292 29.1526 19.6144 29.8924 16.8776 29.731C14.1407 29.5696 11.5301 28.5155 9.43897 26.7278C7.34788 24.94 5.88966 22.5154 5.28405 19.8192C4.67844 17.1231 4.95826 14.3015 6.08134 11.7797C7.20442 9.25785 9.10991 7.17239 11.5107 5.83757C13.9114 4.50275 16.6774 3.99089 19.3918 4.37912C22.1061 4.76735 24.6218 6.03463 26.5598 7.99L33.0646 14.1667" stroke="#4E4B66" stroke-width="2" stroke-linecap="round" stroke-linejoin="round"/>
</g>
<defs>
<clipPath id="clip0">
<rect width="33.7183" height="34" fill="white" transform="translate(0.751465)"/>
</clipPath>
</defs>
</svg>
